<svg width="6rem" height="6rem" viewBox="0 0 46 42" fill="#DEE1FF" xmlns="http://www.w3.org/2000/svg">
<path d="M6 6V0H10V6H16V10H10V16H6V10H0V6H6ZM12 18V12H18V6H32L35.66 10H42C44.2 10 46 11.8 46 14V38C46 40.2 44.2 42 42 42H10C7.8 42 6 40.2 6 38V18H12ZM26 36C31.52 36 36 31.52 36 26C36 20.48 31.52 16 26 16C20.48 16 16 20.48 16 26C16 31.52 20.48 36 26 36ZM19.6 26C19.6 29.54 22.46 32.4 26 32.4C29.54 32.4 32.4 29.54 32.4 26C32.4 22.46 29.54 19.6 26 19.6C22.46 19.6 19.6 22.46 19.6 26Z" fill="#DEE1FF"/>
</svg>
