<?xml version="1.0" encoding="UTF-8"?>
<svg width="36px" height="42px" viewBox="0 0 36 42" version="1.1" xmlns="http://www.w3.org/2000/svg" xmlns:xlink="http://www.w3.org/1999/xlink">
    <!-- Generator: Sketch 49.3 (51167) - http://www.bohemiancoding.com/sketch -->
    <title>custom-map-pin</title>
    <desc>Created with Sketch.</desc>
    <defs>
        <polygon id="path-1" points="0 0.0766257619 35.7913887 0.0766257619 35.7913887 31.9990049 0 31.9990049"></polygon>
    </defs>
    <g id="Page-1" stroke="none" stroke-width="1" fill="none" fill-rule="evenodd">
        <g id="custom-map-pin">
            <g id="Group-3">
                <g id="Fill-1-Clipped">
                    <mask id="mask-2" fill="white">
                        <use xlink:href="#path-1"></use>
                    </mask>
                    <g id="path-1"></g>
                    <path d="M23.0557476,22.3917747 C22.8608072,21.5954282 22.6882937,20.8903428 22.5002539,20.1221248 L13.2656029,20.1221248 C13.088489,20.8747159 12.923451,21.5791763 12.732536,22.3917747 L23.0557476,22.3917747 Z M26.0827855,27.9030672 C25.6014727,27.2442374 25.1621382,26.6066602 24.6808253,26.0078377 C24.5543154,25.8503186 24.3018705,25.7346796 24.1057801,25.7321793 C19.9970821,25.6740472 15.887809,25.6321672 11.778536,25.6040387 C11.5789953,25.6021635 11.3110242,25.6927995 11.1908398,25.8465681 C10.7095269,26.464768 10.2742177,27.125473 9.72849981,27.9030672 L26.0827855,27.9030672 Z M34.2748796,30.2283489 C34.5509013,23.5900448 29.4352991,17.9581127 24.0189483,17.8262217 C23.5410857,24.1107329 28.6227602,30.1452138 34.2748796,30.2283489 Z M1.51685425,30.2402253 C7.81129908,30.0470769 12.2857259,23.3050103 11.7520839,17.804344 C6.15401881,18.002493 1.16320145,23.8788298 1.51685425,30.2402253 Z M11.0551291,10.4003222 C11.7704853,8.47696428 13.177621,7.31244823 14.9487602,6.51172623 C14.7670459,4.67650394 13.9953353,3.21445185 12.6836571,2.07118837 C12.4869917,1.89991763 12.2696246,1.75677529 12.0643335,1.59738098 C11.6652521,1.28859358 11.5393172,0.874168382 11.8193642,0.434740156 C12.1011364,-0.0084385221 12.5099935,-0.00468806786 12.9108,0.277221078 C14.5583045,1.43548637 15.6813678,3.02192853 16.2121346,5.08592852 C16.2909157,5.39471591 16.3535956,5.70850394 16.4249013,6.02354209 L19.3587819,6.02354209 C19.6434293,4.412722 20.212149,2.90191399 21.3093353,1.69551787 C21.7423443,1.2185851 22.2322828,0.797909147 22.7210712,0.385984251 C23.1425794,0.0309412477 23.6221671,-0.110950939 23.9723696,0.469744397 C24.3024456,1.01668564 24.0005468,1.38985585 23.569838,1.69926832 C22.005715,2.82127923 21.0925432,4.39647001 20.8050206,6.49297396 C22.5330315,7.27931921 23.9993967,8.4375845 24.7245287,10.4140739 C25.453111,12.3980642 25.1167096,14.270166 24.0005468,16.0891363 C28.3812412,16.6229509 31.7734329,18.8094658 34.0120839,22.8368286 C35.5624057,25.6259164 36.0960477,28.71004 35.627386,31.9985633 C32.1104094,32.0254415 29.0448434,30.8259213 26.4473642,28.2418583 C26.1678922,29.12259 25.9056716,29.9095603 25.6704781,30.7071569 C25.5485685,31.1178316 25.3547783,31.2803513 24.9292448,31.2747256 C20.1925975,31.2140933 15.4559501,31.1853398 10.7198778,31.1165815 C10.5019356,31.1134561 10.1787602,30.85655 10.0925034,30.6321478 C9.80498083,29.8851823 9.60198987,29.0994621 9.3391942,28.2368577 C6.72963906,30.8140448 3.67097362,32.0298171 0.186774683,31.9941878 C-0.984017359,25.1471084 3.39782712,17.0555033 11.765885,16.0778849 C10.6571978,14.2551641 10.3196463,12.3774367 11.0551291,10.4003222 Z" id="Fill-1" fill="#F5A623" fill-rule="nonzero" mask="url(#mask-2)"></path>
                </g>
            </g>
            <path d="M25,34 C24.6726005,34.4388119 24.4824025,34.7628392 24.228609,35.0223002 C23.0185261,36.2568323 21.8237532,37.5110931 20.553019,38.6792654 C20.0560312,39.1360124 19.6827014,39.5724328 19.6120397,40.2581513 C19.5825973,40.5391342 19.4771935,40.8123455 19.4106536,41.0891437 C19.2198668,41.8812772 18.7723423,42.1640535 18.0345156,41.9087775 C17.9002582,41.8621462 17.7412692,41.647523 17.734203,41.5022488 C17.6470535,39.8366768 16.6860534,38.7964415 15.4812701,37.7765324 C14.2105359,36.7010248 13.1511981,35.366654 12,34.1446764 C12.0482855,34.0968495 12.0965711,34.0484248 12.1448566,34 L25,34 Z" id="Fill-4" fill="#F5A623" fill-rule="nonzero"></path>
        </g>
    </g>
</svg>