<svg width="48" height="48" viewBox="0 0 48 48" fill="#FAFAFA" xmlns="http://www.w3.org/2000/svg">
<path fill-rule="evenodd" clip-rule="evenodd" d="M42 15.9998V31.9998C41.9993 32.7013 41.8141 33.3902 41.4631 33.9975C41.112 34.6048 40.6075 35.1091 40 35.4598L26 43.4598C25.6853 43.6415 25.3488 43.7786 25 43.8687V24.5968L41.8328 14.8596C41.9428 15.228 41.9996 15.612 42 15.9998ZM40.7995 13.1468C40.5605 12.9127 40.2922 12.7085 40 12.5398L26 4.5398C25.3919 4.18873 24.7021 4.00391 24 4.00391C23.2979 4.00391 22.6081 4.18873 22 4.5398L16.11 7.9055L33.0114 17.6519L40.7995 13.1468ZM14.1881 9.00377L8 12.5398C7.70789 12.7085 7.43958 12.9126 7.20069 13.1467L24.0002 22.8646L31.0127 18.8081L14.5006 9.28613C14.3734 9.21279 14.2685 9.11574 14.1881 9.00377ZM6.16724 14.8594L23 24.5965V43.8687C22.6512 43.7786 22.3147 43.6415 22 43.4598L8 35.4598C7.39252 35.1091 6.88796 34.6048 6.53692 33.9975C6.18589 33.3902 6.00072 32.7013 6 31.9998V15.9998C6.0004 15.6119 6.05719 15.2279 6.16724 14.8594Z" fill="#3739B5"/>
</svg>
