<svg width="34" height="34" viewBox="0 0 34 34" fill="none" xmlns="http://www.w3.org/2000/svg">
<path fill-rule="evenodd" clip-rule="evenodd" d="M16.9835 0.333252C7.7835 0.333252 0.333496 7.79992 0.333496 16.9999C0.333496 26.1999 7.7835 33.6666 16.9835 33.6666C26.2002 33.6666 33.6668 26.1999 33.6668 16.9999C33.6668 7.79992 26.2002 0.333252 16.9835 0.333252ZM17.0002 30.3333C9.6335 30.3333 3.66683 24.3666 3.66683 16.9999C3.66683 9.63325 9.6335 3.66659 17.0002 3.66659C24.3668 3.66659 30.3335 9.63325 30.3335 16.9999C30.3335 24.3666 24.3668 30.3333 17.0002 30.3333ZM25.3335 12.8333C25.3335 14.2166 24.2168 15.3333 22.8335 15.3333C21.4502 15.3333 20.3335 14.2166 20.3335 12.8333C20.3335 11.4499 21.4502 10.3333 22.8335 10.3333C24.2168 10.3333 25.3335 11.4499 25.3335 12.8333ZM11.1668 15.3333C12.5502 15.3333 13.6668 14.2166 13.6668 12.8333C13.6668 11.4499 12.5502 10.3333 11.1668 10.3333C9.78349 10.3333 8.66683 11.4499 8.66683 12.8333C8.66683 14.2166 9.78349 15.3333 11.1668 15.3333ZM24.9169 21.5833C23.3336 24.3166 20.3836 26.1666 17.0003 26.1666C13.6169 26.1666 10.6669 24.3166 9.08358 21.5833C8.76692 21.0333 9.18359 20.3333 9.81692 20.3333H24.1836C24.8336 20.3333 25.2336 21.0333 24.9169 21.5833Z" fill="black" fill-opacity="0.54"/>
</svg>
