<svg width="264" height="40" viewBox="0 0 264 40" fill="none" xmlns="http://www.w3.org/2000/svg">
<path d="M134.167 7.50004C136 7.50004 137.5 6.00004 137.5 4.16671C137.5 2.33337 136 0.833374 134.167 0.833374C132.333 0.833374 130.833 2.33337 130.833 4.16671C130.833 6.00004 132.333 7.50004 134.167 7.50004ZM128.167 30.6667L129.75 23.3334L133.333 26.6667V36.6667H136.667V24.0834L133.25 20.6667L134.25 15.6667C136.417 18.3334 139.667 20 143.333 20V16.6667C140.25 16.6667 137.583 15 136.083 12.5834L134.5 9.91671C133.917 8.91671 132.833 8.33337 131.667 8.33337C131.25 8.33337 130.833 8.41671 130.417 8.58337L121.667 12.1667V20H125V14.4167L127.917 13.25L125.333 26.6667L117.167 25.0834L116.5 28.3334C116.5 28.3334 128.167 30.5834 128.167 30.6667Z" fill="#B4B6F1"/>
<path d="M179.15 18.3334L172.5 25L179.15 31.6667V26.6667H190.833V23.3334H179.15V18.3334ZM202.5 15L195.85 8.33337V13.3334H184.167V16.6667H195.85V21.6667L202.5 15Z" fill="#B4B6F1"/>
<path d="M67.4833 18.3334L60.8333 25L67.4833 31.6667V26.6667H79.1666V23.3334H67.4833V18.3334ZM90.8333 15L84.1833 8.33337V13.3334H72.5V16.6667H84.1833V21.6667L90.8333 15Z" fill="#B4B6F1"/>
<path d="M240 33.3333V23.3333H246.667V33.3333H255V20H260L243.333 5L226.667 20H231.667V33.3333H240Z" fill="#B4B6F1"/>
<path d="M11.6667 30C9.82502 30 8.35002 31.4917 8.35002 33.3334C8.35002 35.175 9.82502 36.6667 11.6667 36.6667C13.5084 36.6667 15 35.175 15 33.3334C15 31.4917 13.5084 30 11.6667 30ZM1.66669 3.33337V6.66671H5.00002L10.9917 19.3084L8.74169 23.3917C8.48335 23.875 8.33335 24.4167 8.33335 25C8.33335 26.8417 9.82502 28.3334 11.6667 28.3334H31.6667V25H12.375C12.1417 25 11.9584 24.8167 11.9584 24.5834C11.9584 24.5084 11.975 24.4417 12.0084 24.3834L13.5 21.6667H25.9167C27.1667 21.6667 28.2584 20.975 28.8334 19.95L34.7917 9.13337C34.925 8.90004 35 8.62504 35 8.33337C35 7.40837 34.25 6.66671 33.3334 6.66671H8.69169L7.10835 3.33337H1.66669ZM28.3334 30C26.4917 30 25.0167 31.4917 25.0167 33.3334C25.0167 35.175 26.4917 36.6667 28.3334 36.6667C30.175 36.6667 31.6667 35.175 31.6667 33.3334C31.6667 31.4917 30.175 30 28.3334 30Z" fill="#B4B6F1"/>
</svg>
