<svg width="40" height="40" viewBox="0 0 40 40" fill="none" xmlns="http://www.w3.org/2000/svg">
<path d="M19.9916 3.33325C10.7833 3.33325 3.33331 10.7916 3.33331 19.9999C3.33331 29.2083 10.7833 36.6666 19.9916 36.6666C29.2 36.6666 36.6666 29.2083 36.6666 19.9999C36.6666 10.7916 29.2 3.33325 19.9916 3.33325ZM20 33.3333C12.6333 33.3333 6.66665 27.3666 6.66665 19.9999C6.66665 12.6333 12.6333 6.66659 20 6.66659C27.3666 6.66659 33.3333 12.6333 33.3333 19.9999C33.3333 27.3666 27.3666 33.3333 20 33.3333ZM25.8333 18.3333C27.2166 18.3333 28.3333 17.2166 28.3333 15.8333C28.3333 14.4499 27.2166 13.3333 25.8333 13.3333C24.45 13.3333 23.3333 14.4499 23.3333 15.8333C23.3333 17.2166 24.45 18.3333 25.8333 18.3333ZM14.1666 18.3333C15.55 18.3333 16.6666 17.2166 16.6666 15.8333C16.6666 14.4499 15.55 13.3333 14.1666 13.3333C12.7833 13.3333 11.6666 14.4499 11.6666 15.8333C11.6666 17.2166 12.7833 18.3333 14.1666 18.3333ZM20 29.1666C23.8833 29.1666 27.175 26.7416 28.5083 23.3333H11.4916C12.825 26.7416 16.1166 29.1666 20 29.1666Z" fill="#B4B6F1"/>
</svg>
