<svg id="Layer_1" data-name="Layer 1" xmlns="http://www.w3.org/2000/svg" xmlns:xlink="http://www.w3.org/1999/xlink" viewBox="0 0 72 72"><defs><style>.cls-1{fill:url(#linear-gradient);}.cls-2{fill:#150e60;}</style><linearGradient id="linear-gradient" x1="307.91" y1="172.05" x2="338.82" y2="166.6" gradientTransform="translate(195.85 -288.52) rotate(90)" gradientUnits="userSpaceOnUse"><stop offset="0" stop-color="#d31509"/><stop offset="0.1" stop-color="#d92531"/><stop offset="0.22" stop-color="#de3254"/><stop offset="0.33" stop-color="#e33d70"/><stop offset="0.44" stop-color="#e64583"/><stop offset="0.56" stop-color="#e7498f"/><stop offset="0.68" stop-color="#e84b93"/><stop offset="0.72" stop-color="#e7498d"/><stop offset="0.78" stop-color="#e5427c"/><stop offset="0.85" stop-color="#e03760"/><stop offset="0.92" stop-color="#da2839"/><stop offset="1" stop-color="#d31509"/></linearGradient></defs><path class="cls-1" d="M23.77,51.21c-6.34,0-11.48-7.1-11.48-15.85s5.14-15.84,11.48-15.84c2.37,0,9,2.71,11.49,2.71,10,0-2,6.32-2,13.13s11.61,12.2,2.89,12.2C33.14,47.56,26.55,51.21,23.77,51.21Z"/><path class="cls-2" d="M56.93,51.21c0-8.89-2.72-15.09-11.6-15.09-10.22,0-13.68,15.09-22.76,15.09Z"/><path class="cls-2" d="M56.93,19.52c0,8.89-2.72,15.09-11.6,15.09-10.22,0-13.68-15.09-22.76-15.09Z"/></svg>