<?xml version="1.0" encoding="UTF-8"?>
<svg width="103px" height="109px" viewBox="0 0 103 109" version="1.1" xmlns="http://www.w3.org/2000/svg" xmlns:xlink="http://www.w3.org/1999/xlink">
    <!-- Generator: Sketch 49.3 (51167) - http://www.bohemiancoding.com/sketch -->
    <title>Page 1</title>
    <desc>Created with Sketch.</desc>
    <defs>
        <polygon id="path-1" points="0 0.19874807 102.40314 0.19874807 102.40314 82.9974189 0 82.9974189"></polygon>
    </defs>
    <g id="Page-1" stroke="none" stroke-width="1" fill="none" fill-rule="evenodd">
        <g id="Feed---main-landing-Copy-12" transform="translate(-112.000000, -87.000000)">
            <g id="Group" transform="translate(14.000000, 87.000000)">
                <g id="Group-2">
                    <g id="Page-1" transform="translate(98.000000, 0.000000)">
                        <g id="Group-3">
                            <mask id="mask-2" fill="white">
                                <use xlink:href="#path-1"></use>
                            </mask>
                            <g id="Clip-2"></g>
                            <path d="M65.9650555,58.0786656 C65.4073096,56.013142 64.9137291,54.1843267 64.3757264,52.1917611 L37.9543638,52.1917611 C37.4476212,54.1437944 36.9754292,55.9709884 36.4292002,58.0786656 L65.9650555,58.0786656 Z M74.6257475,72.3735806 C73.248658,70.6647408 71.9916731,69.0110249 70.6145835,67.457829 C70.2526245,67.0492639 69.5303518,66.7493252 68.9693153,66.74284 C57.2138738,66.59206 45.456787,66.4834336 33.6997002,66.4104755 C33.1287921,66.4056117 32.3620971,66.6406987 32.018236,67.0395361 C30.6411465,68.6429921 29.3956785,70.3566957 27.8343189,72.3735806 L74.6257475,72.3735806 Z M98.0642388,78.4047799 C98.8539675,61.1866788 84.2176613,46.5788547 68.7208798,46.2367625 C67.3536619,62.5372134 81.8928973,78.1891483 98.0642388,78.4047799 Z M4.33988855,78.4355844 C22.3489946,77.9346058 35.1508268,60.4473705 33.6240178,46.1800173 C17.6073316,46.6939663 3.32804858,61.9357148 4.33988855,78.4355844 Z M31.6299527,26.9758358 C33.6766664,21.9871261 37.7026378,18.9666626 42.770064,16.8897899 C42.2501592,12.1296821 40.0422092,8.33748448 36.2893524,5.37214484 C35.7266706,4.92791134 35.1047593,4.5566359 34.5173985,4.14320692 C33.3755823,3.3422896 33.0152686,2.26737424 33.8165142,1.12760728 C34.6226957,-0.0218874167 35.7924814,-0.012159676 36.9392333,0.719042171 C41.6529268,3.72329278 44.8661357,7.83812712 46.3847183,13.1916271 C46.61012,13.9925444 46.7894542,14.8064321 46.9934675,15.6235623 L55.387626,15.6235623 C56.2020338,11.4454977 57.8292041,7.52683942 60.9683759,4.39774947 C62.2072629,3.1607051 63.6090314,2.06957685 65.0075094,1.00114665 C66.213491,0.0802538613 67.5856447,-0.287778998 68.5876131,1.21839953 C69.531997,2.63702839 68.6682312,3.6049386 67.4359253,4.40747721 C62.9607957,7.31769299 60.3481098,11.4033441 59.5254756,16.8411512 C64.4695067,18.8807342 68.6649407,21.8849848 70.7396239,27.0115042 C72.8241788,32.157479 71.8616969,37.013243 68.6682312,41.7311972 C81.2018846,43.115779 90.9073219,48.7870519 97.3123512,59.2330242 C101.747994,66.4672207 103.274803,74.4666662 101.93391,82.9962735 C91.8714491,83.065989 83.1005242,79.9547333 75.6688476,73.2523199 C74.8692472,75.5367177 74.1190049,77.5779219 73.4460902,79.6466881 C73.0972933,80.7118758 72.5428379,81.1334112 71.3253394,81.1188196 C57.773265,80.9615544 44.2211905,80.8869751 30.6707614,80.7086332 C30.0472047,80.7005267 29.122564,80.0341765 28.8757737,79.4521333 C28.0531396,77.5146916 27.4723599,75.4767299 26.7204723,73.2393496 C19.2542451,79.9239288 10.5030634,83.0773381 0.534383122,82.9849245 C-2.815383,65.2253125 9.72156094,44.2377118 33.6635043,41.702014 C30.4914271,36.974332 29.5256547,32.1039765 31.6299527,26.9758358 Z" id="Fill-1" fill="#F5A623" mask="url(#mask-2)"></path>
                        </g>
                        <path d="M69,87 C68.1185397,88.2067327 67.6064683,89.0978079 66.923178,89.8113256 C63.6652625,93.2062889 60.4485664,96.6555059 57.0273588,99.8679797 C55.6893147,101.124034 54.6841962,102.32419 54.493953,104.209916 C54.414685,104.982619 54.1309055,105.73395 53.9517597,106.495145 C53.438103,108.673512 52.2332292,109.451147 50.2467727,108.749138 C49.8853105,108.620902 49.4572632,108.030688 49.4382389,107.631184 C49.2036056,103.050861 46.6162975,100.190214 43.3726503,97.3854641 C39.9514427,94.4278181 37.0993794,90.7582984 34,87.3978601 C34.1299995,87.2663361 34.2599991,87.1331681 34.3899986,87 L69,87 Z" id="Fill-4" fill="#F5A623"></path>
                    </g>
                </g>
            </g>
        </g>
    </g>
</svg>