<svg width="100%" height="100%" viewBox="0 0 375 269" fill="none" xmlns="http://www.w3.org/2000/svg">
<rect x="0.5" y="0.5" width="374" height="268" rx="3.5" fill="#D4D6FE" stroke="#D4D5D9"/>
<g clip-path="url(#clip0)">
<path d="M187.922 146.177C191.786 146.177 194.919 143.312 194.919 139.777C194.919 136.243 191.786 133.377 187.922 133.377C184.058 133.377 180.925 136.243 180.925 139.777C180.925 143.312 184.058 146.177 187.922 146.177Z" fill="black"/>
<path d="M181.362 119.777L177.36 123.777H170.429C168.013 123.777 166.056 125.567 166.056 127.777V151.777C166.056 153.987 168.013 155.777 170.429 155.777H205.414C207.83 155.777 209.787 153.987 209.787 151.777V127.777C209.787 125.567 207.83 123.777 205.414 123.777H198.483L194.481 119.777H181.362ZM187.922 149.777C181.887 149.777 176.989 145.297 176.989 139.777C176.989 134.257 181.887 129.777 187.922 129.777C193.957 129.777 198.854 134.257 198.854 139.777C198.854 145.297 193.957 149.777 187.922 149.777Z" fill="black"/>
</g>
<defs>
<clipPath id="clip0">
<rect x="156.341" y="105" width="64" height="58.5403" fill="white"/>
</clipPath>
</defs>
</svg>
