<svg width="34" height="34" viewBox="0 0 34 34" fill="none" xmlns="http://www.w3.org/2000/svg">
<path d="M16.9916 0.333252C7.78331 0.333252 0.333313 7.79159 0.333313 16.9999C0.333313 26.2083 7.78331 33.6666 16.9916 33.6666C26.2 33.6666 33.6666 26.2083 33.6666 16.9999C33.6666 7.79159 26.2 0.333252 16.9916 0.333252ZM17 30.3333C9.63331 30.3333 3.66665 24.3666 3.66665 16.9999C3.66665 9.63325 9.63331 3.66659 17 3.66659C24.3666 3.66659 30.3333 9.63325 30.3333 16.9999C30.3333 24.3666 24.3666 30.3333 17 30.3333ZM22.8333 15.3333C24.2166 15.3333 25.3333 14.2166 25.3333 12.8333C25.3333 11.4499 24.2166 10.3333 22.8333 10.3333C21.45 10.3333 20.3333 11.4499 20.3333 12.8333C20.3333 14.2166 21.45 15.3333 22.8333 15.3333ZM11.1666 15.3333C12.55 15.3333 13.6666 14.2166 13.6666 12.8333C13.6666 11.4499 12.55 10.3333 11.1666 10.3333C9.78331 10.3333 8.66665 11.4499 8.66665 12.8333C8.66665 14.2166 9.78331 15.3333 11.1666 15.3333ZM17 26.1666C20.8833 26.1666 24.175 23.7416 25.5083 20.3333H8.49165C9.82498 23.7416 13.1166 26.1666 17 26.1666Z" fill="#B4B6F1"/>
</svg>
